<mxfile host="Electron" modified="2024-05-11T18:23:08.992Z" agent="Mozilla/5.0 (Windows NT 10.0; Win64; x64) AppleWebKit/537.36 (KHTML, like Gecko) draw.io/24.2.5 Chrome/120.0.6099.109 Electron/28.1.0 Safari/537.36" etag="jtnsK_Z70l6HF3BitPQ2" version="24.2.5" type="device">
  <diagram name="PÃ¡gina-1" id="UARhW923UlKpVIyvKV2f">
    <mxGraphModel dx="1050" dy="621" grid="1" gridSize="10" guides="1" tooltips="1" connect="1" arrows="1" fold="1" page="1" pageScale="1" pageWidth="827" pageHeight="1169" math="0" shadow="0">
      <root>
        <mxCell id="0" />
        <mxCell id="1" parent="0" />
        <mxCell id="d0CNKl4EUxgMIuXD045J-37" style="edgeStyle=orthogonalEdgeStyle;rounded=0;orthogonalLoop=1;jettySize=auto;html=1;" edge="1" parent="1" source="d0CNKl4EUxgMIuXD045J-1" target="d0CNKl4EUxgMIuXD045J-34">
          <mxGeometry relative="1" as="geometry" />
        </mxCell>
        <mxCell id="d0CNKl4EUxgMIuXD045J-1" value="ms-marketplace-credit-card-callback" style="outlineConnect=0;dashed=0;verticalLabelPosition=bottom;verticalAlign=top;align=center;html=1;shape=mxgraph.aws3.application;fillColor=#F58534;gradientColor=none;" vertex="1" parent="1">
          <mxGeometry x="360" y="480" width="74.5" height="80" as="geometry" />
        </mxCell>
        <mxCell id="d0CNKl4EUxgMIuXD045J-5" style="edgeStyle=orthogonalEdgeStyle;rounded=0;orthogonalLoop=1;jettySize=auto;html=1;" edge="1" parent="1" source="d0CNKl4EUxgMIuXD045J-2" target="d0CNKl4EUxgMIuXD045J-3">
          <mxGeometry relative="1" as="geometry" />
        </mxCell>
        <mxCell id="d0CNKl4EUxgMIuXD045J-39" style="edgeStyle=orthogonalEdgeStyle;rounded=0;orthogonalLoop=1;jettySize=auto;html=1;exitX=0.5;exitY=0.06;exitDx=0;exitDy=0;exitPerimeter=0;" edge="1" parent="1" source="d0CNKl4EUxgMIuXD045J-6" target="d0CNKl4EUxgMIuXD045J-38">
          <mxGeometry relative="1" as="geometry" />
        </mxCell>
        <mxCell id="d0CNKl4EUxgMIuXD045J-2" value="sns-analysis-credit-request" style="sketch=0;points=[[0,0,0],[0.25,0,0],[0.5,0,0],[0.75,0,0],[1,0,0],[0,1,0],[0.25,1,0],[0.5,1,0],[0.75,1,0],[1,1,0],[0,0.25,0],[0,0.5,0],[0,0.75,0],[1,0.25,0],[1,0.5,0],[1,0.75,0]];outlineConnect=0;fontColor=#232F3E;fillColor=#E7157B;strokeColor=#ffffff;dashed=0;verticalLabelPosition=bottom;verticalAlign=top;align=center;html=1;fontSize=12;fontStyle=0;aspect=fixed;shape=mxgraph.aws4.resourceIcon;resIcon=mxgraph.aws4.sns;" vertex="1" parent="1">
          <mxGeometry x="572" y="281" width="78" height="78" as="geometry" />
        </mxCell>
        <mxCell id="d0CNKl4EUxgMIuXD045J-22" style="edgeStyle=orthogonalEdgeStyle;rounded=0;orthogonalLoop=1;jettySize=auto;html=1;" edge="1" parent="1" source="d0CNKl4EUxgMIuXD045J-3" target="d0CNKl4EUxgMIuXD045J-16">
          <mxGeometry relative="1" as="geometry" />
        </mxCell>
        <mxCell id="d0CNKl4EUxgMIuXD045J-3" value="sqs-analysis-credit-request" style="sketch=0;points=[[0,0,0],[0.25,0,0],[0.5,0,0],[0.75,0,0],[1,0,0],[0,1,0],[0.25,1,0],[0.5,1,0],[0.75,1,0],[1,1,0],[0,0.25,0],[0,0.5,0],[0,0.75,0],[1,0.25,0],[1,0.5,0],[1,0.75,0]];outlineConnect=0;fontColor=#232F3E;fillColor=#E7157B;strokeColor=#ffffff;dashed=0;verticalLabelPosition=bottom;verticalAlign=top;align=center;html=1;fontSize=12;fontStyle=0;aspect=fixed;shape=mxgraph.aws4.resourceIcon;resIcon=mxgraph.aws4.sqs;" vertex="1" parent="1">
          <mxGeometry x="800" y="281" width="78" height="78" as="geometry" />
        </mxCell>
        <mxCell id="d0CNKl4EUxgMIuXD045J-9" style="edgeStyle=orthogonalEdgeStyle;rounded=0;orthogonalLoop=1;jettySize=auto;html=1;" edge="1" parent="1" source="d0CNKl4EUxgMIuXD045J-6" target="d0CNKl4EUxgMIuXD045J-2">
          <mxGeometry relative="1" as="geometry" />
        </mxCell>
        <mxCell id="d0CNKl4EUxgMIuXD045J-6" value="ms-marketplace-credit-card" style="outlineConnect=0;dashed=0;verticalLabelPosition=bottom;verticalAlign=top;align=center;html=1;shape=mxgraph.aws3.application;fillColor=#F58534;gradientColor=none;" vertex="1" parent="1">
          <mxGeometry x="370" y="280" width="74.5" height="80" as="geometry" />
        </mxCell>
        <mxCell id="d0CNKl4EUxgMIuXD045J-8" style="edgeStyle=orthogonalEdgeStyle;rounded=0;orthogonalLoop=1;jettySize=auto;html=1;" edge="1" parent="1" source="d0CNKl4EUxgMIuXD045J-7" target="d0CNKl4EUxgMIuXD045J-1">
          <mxGeometry relative="1" as="geometry" />
        </mxCell>
        <mxCell id="d0CNKl4EUxgMIuXD045J-7" value="sqs-analysis-credit-card-response" style="sketch=0;points=[[0,0,0],[0.25,0,0],[0.5,0,0],[0.75,0,0],[1,0,0],[0,1,0],[0.25,1,0],[0.5,1,0],[0.75,1,0],[1,1,0],[0,0.25,0],[0,0.5,0],[0,0.75,0],[1,0.25,0],[1,0.5,0],[1,0.75,0]];outlineConnect=0;fontColor=#232F3E;fillColor=#E7157B;strokeColor=#ffffff;dashed=0;verticalLabelPosition=bottom;verticalAlign=top;align=center;html=1;fontSize=12;fontStyle=0;aspect=fixed;shape=mxgraph.aws4.resourceIcon;resIcon=mxgraph.aws4.sqs;" vertex="1" parent="1">
          <mxGeometry x="800" y="481" width="78" height="78" as="geometry" />
        </mxCell>
        <mxCell id="d0CNKl4EUxgMIuXD045J-21" style="edgeStyle=orthogonalEdgeStyle;rounded=0;orthogonalLoop=1;jettySize=auto;html=1;" edge="1" parent="1" source="d0CNKl4EUxgMIuXD045J-10" target="d0CNKl4EUxgMIuXD045J-14">
          <mxGeometry relative="1" as="geometry" />
        </mxCell>
        <mxCell id="d0CNKl4EUxgMIuXD045J-10" value="sqs-analysis-pld-request" style="sketch=0;points=[[0,0,0],[0.25,0,0],[0.5,0,0],[0.75,0,0],[1,0,0],[0,1,0],[0.25,1,0],[0.5,1,0],[0.75,1,0],[1,1,0],[0,0.25,0],[0,0.5,0],[0,0.75,0],[1,0.25,0],[1,0.5,0],[1,0.75,0]];outlineConnect=0;fontColor=#232F3E;fillColor=#E7157B;strokeColor=#ffffff;dashed=0;verticalLabelPosition=bottom;verticalAlign=top;align=center;html=1;fontSize=12;fontStyle=0;aspect=fixed;shape=mxgraph.aws4.resourceIcon;resIcon=mxgraph.aws4.sqs;" vertex="1" parent="1">
          <mxGeometry x="800" y="160" width="78" height="78" as="geometry" />
        </mxCell>
        <mxCell id="d0CNKl4EUxgMIuXD045J-11" style="edgeStyle=orthogonalEdgeStyle;rounded=0;orthogonalLoop=1;jettySize=auto;html=1;entryX=0;entryY=0.5;entryDx=0;entryDy=0;entryPerimeter=0;" edge="1" parent="1" source="d0CNKl4EUxgMIuXD045J-2" target="d0CNKl4EUxgMIuXD045J-10">
          <mxGeometry relative="1" as="geometry" />
        </mxCell>
        <mxCell id="d0CNKl4EUxgMIuXD045J-19" style="edgeStyle=orthogonalEdgeStyle;rounded=0;orthogonalLoop=1;jettySize=auto;html=1;" edge="1" parent="1" source="d0CNKl4EUxgMIuXD045J-12" target="d0CNKl4EUxgMIuXD045J-17">
          <mxGeometry relative="1" as="geometry" />
        </mxCell>
        <mxCell id="d0CNKl4EUxgMIuXD045J-12" value="sqs-analysis-fraudes-request" style="sketch=0;points=[[0,0,0],[0.25,0,0],[0.5,0,0],[0.75,0,0],[1,0,0],[0,1,0],[0.25,1,0],[0.5,1,0],[0.75,1,0],[1,1,0],[0,0.25,0],[0,0.5,0],[0,0.75,0],[1,0.25,0],[1,0.5,0],[1,0.75,0]];outlineConnect=0;fontColor=#232F3E;fillColor=#E7157B;strokeColor=#ffffff;dashed=0;verticalLabelPosition=bottom;verticalAlign=top;align=center;html=1;fontSize=12;fontStyle=0;aspect=fixed;shape=mxgraph.aws4.resourceIcon;resIcon=mxgraph.aws4.sqs;" vertex="1" parent="1">
          <mxGeometry x="800" y="40" width="78" height="78" as="geometry" />
        </mxCell>
        <mxCell id="d0CNKl4EUxgMIuXD045J-13" style="edgeStyle=orthogonalEdgeStyle;rounded=0;orthogonalLoop=1;jettySize=auto;html=1;entryX=0;entryY=0.5;entryDx=0;entryDy=0;entryPerimeter=0;" edge="1" parent="1" source="d0CNKl4EUxgMIuXD045J-2" target="d0CNKl4EUxgMIuXD045J-12">
          <mxGeometry relative="1" as="geometry" />
        </mxCell>
        <mxCell id="d0CNKl4EUxgMIuXD045J-27" style="edgeStyle=orthogonalEdgeStyle;rounded=0;orthogonalLoop=1;jettySize=auto;html=1;" edge="1" parent="1" source="d0CNKl4EUxgMIuXD045J-14" target="d0CNKl4EUxgMIuXD045J-26">
          <mxGeometry relative="1" as="geometry" />
        </mxCell>
        <mxCell id="d0CNKl4EUxgMIuXD045J-47" style="edgeStyle=orthogonalEdgeStyle;rounded=0;orthogonalLoop=1;jettySize=auto;html=1;" edge="1" parent="1" source="d0CNKl4EUxgMIuXD045J-14" target="d0CNKl4EUxgMIuXD045J-46">
          <mxGeometry relative="1" as="geometry" />
        </mxCell>
        <mxCell id="d0CNKl4EUxgMIuXD045J-14" value="ms-analysis-pld" style="outlineConnect=0;dashed=0;verticalLabelPosition=bottom;verticalAlign=top;align=center;html=1;shape=mxgraph.aws3.application;fillColor=#F58534;gradientColor=none;" vertex="1" parent="1">
          <mxGeometry x="1080" y="159" width="74.5" height="80" as="geometry" />
        </mxCell>
        <mxCell id="d0CNKl4EUxgMIuXD045J-29" style="edgeStyle=orthogonalEdgeStyle;rounded=0;orthogonalLoop=1;jettySize=auto;html=1;" edge="1" parent="1" source="d0CNKl4EUxgMIuXD045J-16" target="d0CNKl4EUxgMIuXD045J-28">
          <mxGeometry relative="1" as="geometry" />
        </mxCell>
        <mxCell id="d0CNKl4EUxgMIuXD045J-43" style="edgeStyle=orthogonalEdgeStyle;rounded=0;orthogonalLoop=1;jettySize=auto;html=1;" edge="1" parent="1" source="d0CNKl4EUxgMIuXD045J-16" target="d0CNKl4EUxgMIuXD045J-42">
          <mxGeometry relative="1" as="geometry" />
        </mxCell>
        <mxCell id="d0CNKl4EUxgMIuXD045J-16" value="ms-analysis-credit" style="outlineConnect=0;dashed=0;verticalLabelPosition=bottom;verticalAlign=top;align=center;html=1;shape=mxgraph.aws3.application;fillColor=#F58534;gradientColor=none;" vertex="1" parent="1">
          <mxGeometry x="1080" y="280" width="74.5" height="80" as="geometry" />
        </mxCell>
        <mxCell id="d0CNKl4EUxgMIuXD045J-25" style="edgeStyle=orthogonalEdgeStyle;rounded=0;orthogonalLoop=1;jettySize=auto;html=1;" edge="1" parent="1" source="d0CNKl4EUxgMIuXD045J-17" target="d0CNKl4EUxgMIuXD045J-24">
          <mxGeometry relative="1" as="geometry" />
        </mxCell>
        <mxCell id="d0CNKl4EUxgMIuXD045J-17" value="ms-analysis-fraudes" style="outlineConnect=0;dashed=0;verticalLabelPosition=bottom;verticalAlign=top;align=center;html=1;shape=mxgraph.aws3.application;fillColor=#F58534;gradientColor=none;" vertex="1" parent="1">
          <mxGeometry x="1080" y="39" width="74.5" height="80" as="geometry" />
        </mxCell>
        <mxCell id="d0CNKl4EUxgMIuXD045J-30" style="edgeStyle=orthogonalEdgeStyle;rounded=0;orthogonalLoop=1;jettySize=auto;html=1;" edge="1" parent="1" source="d0CNKl4EUxgMIuXD045J-23" target="d0CNKl4EUxgMIuXD045J-7">
          <mxGeometry relative="1" as="geometry" />
        </mxCell>
        <mxCell id="d0CNKl4EUxgMIuXD045J-49" style="edgeStyle=orthogonalEdgeStyle;rounded=0;orthogonalLoop=1;jettySize=auto;html=1;" edge="1" parent="1" source="d0CNKl4EUxgMIuXD045J-23" target="d0CNKl4EUxgMIuXD045J-48">
          <mxGeometry relative="1" as="geometry" />
        </mxCell>
        <mxCell id="d0CNKl4EUxgMIuXD045J-23" value="ms-work-integration" style="outlineConnect=0;dashed=0;verticalLabelPosition=bottom;verticalAlign=top;align=center;html=1;shape=mxgraph.aws3.application;fillColor=#F58534;gradientColor=none;" vertex="1" parent="1">
          <mxGeometry x="1620" y="480" width="74.5" height="80" as="geometry" />
        </mxCell>
        <mxCell id="d0CNKl4EUxgMIuXD045J-24" value="sqs-analysis-fraudes-response" style="sketch=0;points=[[0,0,0],[0.25,0,0],[0.5,0,0],[0.75,0,0],[1,0,0],[0,1,0],[0.25,1,0],[0.5,1,0],[0.75,1,0],[1,1,0],[0,0.25,0],[0,0.5,0],[0,0.75,0],[1,0.25,0],[1,0.5,0],[1,0.75,0]];outlineConnect=0;fontColor=#232F3E;fillColor=#E7157B;strokeColor=#ffffff;dashed=0;verticalLabelPosition=bottom;verticalAlign=top;align=center;html=1;fontSize=12;fontStyle=0;aspect=fixed;shape=mxgraph.aws4.resourceIcon;resIcon=mxgraph.aws4.sqs;" vertex="1" parent="1">
          <mxGeometry x="1360" y="40" width="78" height="78" as="geometry" />
        </mxCell>
        <mxCell id="d0CNKl4EUxgMIuXD045J-26" value="sqs-analysis-pld-response" style="sketch=0;points=[[0,0,0],[0.25,0,0],[0.5,0,0],[0.75,0,0],[1,0,0],[0,1,0],[0.25,1,0],[0.5,1,0],[0.75,1,0],[1,1,0],[0,0.25,0],[0,0.5,0],[0,0.75,0],[1,0.25,0],[1,0.5,0],[1,0.75,0]];outlineConnect=0;fontColor=#232F3E;fillColor=#E7157B;strokeColor=#ffffff;dashed=0;verticalLabelPosition=bottom;verticalAlign=top;align=center;html=1;fontSize=12;fontStyle=0;aspect=fixed;shape=mxgraph.aws4.resourceIcon;resIcon=mxgraph.aws4.sqs;" vertex="1" parent="1">
          <mxGeometry x="1360" y="160" width="78" height="78" as="geometry" />
        </mxCell>
        <mxCell id="d0CNKl4EUxgMIuXD045J-28" value="sqs-analysis-credit-response" style="sketch=0;points=[[0,0,0],[0.25,0,0],[0.5,0,0],[0.75,0,0],[1,0,0],[0,1,0],[0.25,1,0],[0.5,1,0],[0.75,1,0],[1,1,0],[0,0.25,0],[0,0.5,0],[0,0.75,0],[1,0.25,0],[1,0.5,0],[1,0.75,0]];outlineConnect=0;fontColor=#232F3E;fillColor=#E7157B;strokeColor=#ffffff;dashed=0;verticalLabelPosition=bottom;verticalAlign=top;align=center;html=1;fontSize=12;fontStyle=0;aspect=fixed;shape=mxgraph.aws4.resourceIcon;resIcon=mxgraph.aws4.sqs;" vertex="1" parent="1">
          <mxGeometry x="1360" y="281" width="78" height="78" as="geometry" />
        </mxCell>
        <mxCell id="d0CNKl4EUxgMIuXD045J-31" style="edgeStyle=orthogonalEdgeStyle;rounded=0;orthogonalLoop=1;jettySize=auto;html=1;entryX=0.5;entryY=0.06;entryDx=0;entryDy=0;entryPerimeter=0;" edge="1" parent="1" source="d0CNKl4EUxgMIuXD045J-24" target="d0CNKl4EUxgMIuXD045J-23">
          <mxGeometry relative="1" as="geometry" />
        </mxCell>
        <mxCell id="d0CNKl4EUxgMIuXD045J-32" style="edgeStyle=orthogonalEdgeStyle;rounded=0;orthogonalLoop=1;jettySize=auto;html=1;entryX=0.5;entryY=0.06;entryDx=0;entryDy=0;entryPerimeter=0;" edge="1" parent="1" source="d0CNKl4EUxgMIuXD045J-26" target="d0CNKl4EUxgMIuXD045J-23">
          <mxGeometry relative="1" as="geometry" />
        </mxCell>
        <mxCell id="d0CNKl4EUxgMIuXD045J-33" style="edgeStyle=orthogonalEdgeStyle;rounded=0;orthogonalLoop=1;jettySize=auto;html=1;entryX=0.5;entryY=0.06;entryDx=0;entryDy=0;entryPerimeter=0;" edge="1" parent="1" source="d0CNKl4EUxgMIuXD045J-28" target="d0CNKl4EUxgMIuXD045J-23">
          <mxGeometry relative="1" as="geometry" />
        </mxCell>
        <mxCell id="d0CNKl4EUxgMIuXD045J-34" value="" style="sketch=0;outlineConnect=0;fontColor=#232F3E;gradientColor=none;fillColor=#232F3D;strokeColor=none;dashed=0;verticalLabelPosition=bottom;verticalAlign=top;align=center;html=1;fontSize=12;fontStyle=0;aspect=fixed;pointerEvents=1;shape=mxgraph.aws4.management_console2;" vertex="1" parent="1">
          <mxGeometry x="10" y="285.5" width="78" height="69" as="geometry" />
        </mxCell>
        <mxCell id="d0CNKl4EUxgMIuXD045J-36" style="edgeStyle=orthogonalEdgeStyle;rounded=0;orthogonalLoop=1;jettySize=auto;html=1;entryX=0;entryY=0.5;entryDx=0;entryDy=0;entryPerimeter=0;" edge="1" parent="1" source="d0CNKl4EUxgMIuXD045J-34" target="d0CNKl4EUxgMIuXD045J-6">
          <mxGeometry relative="1" as="geometry" />
        </mxCell>
        <mxCell id="d0CNKl4EUxgMIuXD045J-40" style="edgeStyle=orthogonalEdgeStyle;rounded=0;orthogonalLoop=1;jettySize=auto;html=1;entryX=0.5;entryY=0.06;entryDx=0;entryDy=0;entryPerimeter=0;" edge="1" parent="1" source="d0CNKl4EUxgMIuXD045J-38" target="d0CNKl4EUxgMIuXD045J-6">
          <mxGeometry relative="1" as="geometry" />
        </mxCell>
        <mxCell id="d0CNKl4EUxgMIuXD045J-38" value="" style="image;sketch=0;aspect=fixed;html=1;points=[];align=center;fontSize=12;image=img/lib/mscae/Cache_Redis_Product.svg;" vertex="1" parent="1">
          <mxGeometry x="365.16999999999996" y="48" width="83.33" height="70" as="geometry" />
        </mxCell>
        <mxCell id="d0CNKl4EUxgMIuXD045J-42" value="" style="outlineConnect=0;dashed=0;verticalLabelPosition=bottom;verticalAlign=top;align=center;html=1;shape=mxgraph.aws3.dynamo_db;fillColor=#2E73B8;gradientColor=none;" vertex="1" parent="1">
          <mxGeometry x="1210" y="340" width="72" height="81" as="geometry" />
        </mxCell>
        <mxCell id="d0CNKl4EUxgMIuXD045J-44" value="" style="outlineConnect=0;dashed=0;verticalLabelPosition=bottom;verticalAlign=top;align=center;html=1;shape=mxgraph.aws3.dynamo_db;fillColor=#2E73B8;gradientColor=none;" vertex="1" parent="1">
          <mxGeometry x="1210" y="90" width="72" height="81" as="geometry" />
        </mxCell>
        <mxCell id="d0CNKl4EUxgMIuXD045J-45" style="edgeStyle=orthogonalEdgeStyle;rounded=0;orthogonalLoop=1;jettySize=auto;html=1;" edge="1" parent="1" source="d0CNKl4EUxgMIuXD045J-17" target="d0CNKl4EUxgMIuXD045J-44">
          <mxGeometry relative="1" as="geometry" />
        </mxCell>
        <mxCell id="d0CNKl4EUxgMIuXD045J-46" value="" style="outlineConnect=0;dashed=0;verticalLabelPosition=bottom;verticalAlign=top;align=center;html=1;shape=mxgraph.aws3.dynamo_db;fillColor=#2E73B8;gradientColor=none;" vertex="1" parent="1">
          <mxGeometry x="1210" y="220" width="72" height="81" as="geometry" />
        </mxCell>
        <mxCell id="d0CNKl4EUxgMIuXD045J-48" value="" style="outlineConnect=0;dashed=0;verticalLabelPosition=bottom;verticalAlign=top;align=center;html=1;shape=mxgraph.aws3.dynamo_db;fillColor=#2E73B8;gradientColor=none;" vertex="1" parent="1">
          <mxGeometry x="1790" y="479" width="72" height="81" as="geometry" />
        </mxCell>
        <mxCell id="d0CNKl4EUxgMIuXD045J-50" value="" style="outlineConnect=0;dashed=0;verticalLabelPosition=bottom;verticalAlign=top;align=center;html=1;shape=mxgraph.aws3.dynamo_db;fillColor=#2E73B8;gradientColor=none;" vertex="1" parent="1">
          <mxGeometry x="490" y="139" width="72" height="81" as="geometry" />
        </mxCell>
        <mxCell id="d0CNKl4EUxgMIuXD045J-51" style="edgeStyle=orthogonalEdgeStyle;rounded=0;orthogonalLoop=1;jettySize=auto;html=1;entryX=0;entryY=0.5;entryDx=0;entryDy=0;entryPerimeter=0;" edge="1" parent="1" source="d0CNKl4EUxgMIuXD045J-6" target="d0CNKl4EUxgMIuXD045J-50">
          <mxGeometry relative="1" as="geometry" />
        </mxCell>
      </root>
    </mxGraphModel>
  </diagram>
</mxfile>
